<mxfile host="app.diagrams.net" agent="Mozilla/5.0 (Windows NT 10.0; Win64; x64) AppleWebKit/537.36 (KHTML, like Gecko) Chrome/135.0.0.0 Safari/537.36 Edg/135.0.0.0" version="26.2.14">
  <diagram name="Page-1" id="06J5KmDSggkFYlG2GVtN">
    <mxGraphModel dx="1710" dy="2128" grid="1" gridSize="10" guides="1" tooltips="1" connect="1" arrows="1" fold="1" page="1" pageScale="1" pageWidth="850" pageHeight="1100" math="0" shadow="0">
      <root>
        <mxCell id="0" />
        <mxCell id="1" parent="0" />
        <mxCell id="XetHnDWPlCPj65D6uJBs-78" value="" style="ellipse;whiteSpace=wrap;html=1;aspect=fixed;" vertex="1" parent="1">
          <mxGeometry x="790" y="-350" width="850" height="850" as="geometry" />
        </mxCell>
        <mxCell id="XetHnDWPlCPj65D6uJBs-80" style="edgeStyle=orthogonalEdgeStyle;rounded=0;orthogonalLoop=1;jettySize=auto;html=1;" edge="1" parent="1" source="XetHnDWPlCPj65D6uJBs-20" target="XetHnDWPlCPj65D6uJBs-78">
          <mxGeometry relative="1" as="geometry" />
        </mxCell>
        <mxCell id="XetHnDWPlCPj65D6uJBs-20" value="&lt;div&gt;&lt;br&gt;&lt;/div&gt;&lt;div&gt;&lt;br&gt;&lt;/div&gt;&lt;div&gt;&lt;br&gt;&lt;/div&gt;&lt;div&gt;&lt;br&gt;&lt;/div&gt;&lt;div&gt;&lt;br&gt;&lt;/div&gt;&lt;div&gt;&lt;br&gt;&lt;/div&gt;&lt;div&gt;&lt;br&gt;&lt;/div&gt;&lt;div&gt;&lt;br&gt;&lt;/div&gt;STORAGE" style="shape=cylinder3;whiteSpace=wrap;html=1;boundedLbl=1;backgroundOutline=1;size=15;" vertex="1" parent="1">
          <mxGeometry x="390" y="270" width="400" height="240" as="geometry" />
        </mxCell>
        <mxCell id="XetHnDWPlCPj65D6uJBs-1" value="Trueman show&amp;nbsp;&lt;div&gt;(raw Movie)&lt;/div&gt;" style="rounded=0;whiteSpace=wrap;html=1;" vertex="1" parent="1">
          <mxGeometry x="20" y="40" width="120" height="70" as="geometry" />
        </mxCell>
        <mxCell id="XetHnDWPlCPj65D6uJBs-2" value="" style="shape=flexArrow;endArrow=classic;html=1;rounded=0;exitX=1;exitY=0.5;exitDx=0;exitDy=0;" edge="1" parent="1" source="XetHnDWPlCPj65D6uJBs-1">
          <mxGeometry width="50" height="50" relative="1" as="geometry">
            <mxPoint x="330" y="240" as="sourcePoint" />
            <mxPoint x="240" y="75" as="targetPoint" />
          </mxGeometry>
        </mxCell>
        <mxCell id="XetHnDWPlCPj65D6uJBs-4" value="API" style="swimlane;whiteSpace=wrap;html=1;" vertex="1" parent="1">
          <mxGeometry x="240" y="40" width="90" height="70" as="geometry" />
        </mxCell>
        <mxCell id="XetHnDWPlCPj65D6uJBs-6" value="" style="shape=flexArrow;endArrow=classic;html=1;rounded=0;exitX=1;exitY=0.5;exitDx=0;exitDy=0;" edge="1" parent="1" source="XetHnDWPlCPj65D6uJBs-4" target="XetHnDWPlCPj65D6uJBs-7">
          <mxGeometry width="50" height="50" relative="1" as="geometry">
            <mxPoint x="330" y="80" as="sourcePoint" />
            <mxPoint x="390" y="80" as="targetPoint" />
          </mxGeometry>
        </mxCell>
        <mxCell id="XetHnDWPlCPj65D6uJBs-7" value="FFMPEG" style="shape=process;whiteSpace=wrap;html=1;backgroundOutline=1;" vertex="1" parent="1">
          <mxGeometry x="540" y="45" width="120" height="60" as="geometry" />
        </mxCell>
        <mxCell id="XetHnDWPlCPj65D6uJBs-10" value="" style="endArrow=classic;html=1;rounded=0;exitX=0.428;exitY=1.011;exitDx=0;exitDy=0;exitPerimeter=0;" edge="1" parent="1" source="XetHnDWPlCPj65D6uJBs-7">
          <mxGeometry width="50" height="50" relative="1" as="geometry">
            <mxPoint x="330" y="240" as="sourcePoint" />
            <mxPoint x="591" y="230" as="targetPoint" />
          </mxGeometry>
        </mxCell>
        <mxCell id="XetHnDWPlCPj65D6uJBs-11" value="" style="endArrow=none;html=1;rounded=0;" edge="1" parent="1">
          <mxGeometry width="50" height="50" relative="1" as="geometry">
            <mxPoint x="440" y="230" as="sourcePoint" />
            <mxPoint x="730" y="230" as="targetPoint" />
          </mxGeometry>
        </mxCell>
        <mxCell id="XetHnDWPlCPj65D6uJBs-12" value="" style="endArrow=classic;html=1;rounded=0;" edge="1" parent="1">
          <mxGeometry width="50" height="50" relative="1" as="geometry">
            <mxPoint x="440" y="230" as="sourcePoint" />
            <mxPoint x="440" y="350" as="targetPoint" />
          </mxGeometry>
        </mxCell>
        <mxCell id="XetHnDWPlCPj65D6uJBs-14" value="" style="endArrow=classic;html=1;rounded=0;" edge="1" parent="1">
          <mxGeometry width="50" height="50" relative="1" as="geometry">
            <mxPoint x="590" y="230" as="sourcePoint" />
            <mxPoint x="590" y="350" as="targetPoint" />
            <Array as="points" />
          </mxGeometry>
        </mxCell>
        <mxCell id="XetHnDWPlCPj65D6uJBs-16" value="" style="endArrow=classic;html=1;rounded=0;" edge="1" parent="1">
          <mxGeometry width="50" height="50" relative="1" as="geometry">
            <mxPoint x="730" y="230" as="sourcePoint" />
            <mxPoint x="730" y="350" as="targetPoint" />
            <Array as="points" />
          </mxGeometry>
        </mxCell>
        <mxCell id="XetHnDWPlCPj65D6uJBs-17" value="Trueman show (480p)" style="whiteSpace=wrap;html=1;aspect=fixed;" vertex="1" parent="1">
          <mxGeometry x="400" y="350" width="80" height="80" as="geometry" />
        </mxCell>
        <mxCell id="XetHnDWPlCPj65D6uJBs-18" value="Trueman show (720p)" style="whiteSpace=wrap;html=1;aspect=fixed;" vertex="1" parent="1">
          <mxGeometry x="560" y="350" width="80" height="80" as="geometry" />
        </mxCell>
        <mxCell id="XetHnDWPlCPj65D6uJBs-19" value="Trueman show (1080p)" style="whiteSpace=wrap;html=1;aspect=fixed;" vertex="1" parent="1">
          <mxGeometry x="700" y="350" width="80" height="80" as="geometry" />
        </mxCell>
        <mxCell id="XetHnDWPlCPj65D6uJBs-83" value="HLS" style="edgeStyle=orthogonalEdgeStyle;rounded=0;orthogonalLoop=1;jettySize=auto;html=1;entryX=0.5;entryY=1;entryDx=0;entryDy=0;" edge="1" parent="1" source="XetHnDWPlCPj65D6uJBs-21" target="XetHnDWPlCPj65D6uJBs-81">
          <mxGeometry relative="1" as="geometry" />
        </mxCell>
        <mxCell id="XetHnDWPlCPj65D6uJBs-91" style="edgeStyle=orthogonalEdgeStyle;rounded=0;orthogonalLoop=1;jettySize=auto;html=1;entryX=0;entryY=0.75;entryDx=0;entryDy=0;" edge="1" parent="1" source="XetHnDWPlCPj65D6uJBs-21" target="XetHnDWPlCPj65D6uJBs-81">
          <mxGeometry relative="1" as="geometry" />
        </mxCell>
        <mxCell id="XetHnDWPlCPj65D6uJBs-21" value="ANGULAR" style="swimlane;whiteSpace=wrap;html=1;startSize=23;" vertex="1" parent="1">
          <mxGeometry x="170" y="920" width="140" height="80" as="geometry" />
        </mxCell>
        <mxCell id="XetHnDWPlCPj65D6uJBs-27" style="edgeStyle=orthogonalEdgeStyle;rounded=0;orthogonalLoop=1;jettySize=auto;html=1;entryX=0;entryY=0.5;entryDx=0;entryDy=0;" edge="1" parent="1" source="XetHnDWPlCPj65D6uJBs-22" target="XetHnDWPlCPj65D6uJBs-21">
          <mxGeometry relative="1" as="geometry">
            <mxPoint x="380" y="590" as="targetPoint" />
          </mxGeometry>
        </mxCell>
        <mxCell id="XetHnDWPlCPj65D6uJBs-22" value="Arihant" style="shape=umlActor;verticalLabelPosition=bottom;verticalAlign=top;html=1;outlineConnect=0;" vertex="1" parent="1">
          <mxGeometry x="70" y="540" width="30" height="60" as="geometry" />
        </mxCell>
        <mxCell id="XetHnDWPlCPj65D6uJBs-32" value="360P" style="shape=note;whiteSpace=wrap;html=1;backgroundOutline=1;darkOpacity=0.05;" vertex="1" parent="1">
          <mxGeometry x="1070" y="-30" width="80" height="100" as="geometry" />
        </mxCell>
        <mxCell id="XetHnDWPlCPj65D6uJBs-33" value="720P" style="shape=note;whiteSpace=wrap;html=1;backgroundOutline=1;darkOpacity=0.05;" vertex="1" parent="1">
          <mxGeometry x="1070" y="105" width="80" height="105" as="geometry" />
        </mxCell>
        <mxCell id="XetHnDWPlCPj65D6uJBs-34" value="480P" style="shape=note;whiteSpace=wrap;html=1;backgroundOutline=1;darkOpacity=0.05;" vertex="1" parent="1">
          <mxGeometry x="1070" y="240" width="80" height="100" as="geometry" />
        </mxCell>
        <mxCell id="XetHnDWPlCPj65D6uJBs-36" style="edgeStyle=orthogonalEdgeStyle;rounded=0;orthogonalLoop=1;jettySize=auto;html=1;exitX=0;exitY=0;exitDx=80;exitDy=65;exitPerimeter=0;entryX=0;entryY=0.5;entryDx=0;entryDy=0;entryPerimeter=0;" edge="1" parent="1" source="XetHnDWPlCPj65D6uJBs-31" target="XetHnDWPlCPj65D6uJBs-32">
          <mxGeometry relative="1" as="geometry" />
        </mxCell>
        <mxCell id="XetHnDWPlCPj65D6uJBs-38" style="edgeStyle=orthogonalEdgeStyle;rounded=0;orthogonalLoop=1;jettySize=auto;html=1;entryX=0;entryY=0.5;entryDx=0;entryDy=0;entryPerimeter=0;exitX=0;exitY=0;exitDx=70;exitDy=65;exitPerimeter=0;" edge="1" parent="1" source="XetHnDWPlCPj65D6uJBs-31" target="XetHnDWPlCPj65D6uJBs-34">
          <mxGeometry relative="1" as="geometry">
            <mxPoint x="980" y="95" as="sourcePoint" />
          </mxGeometry>
        </mxCell>
        <mxCell id="XetHnDWPlCPj65D6uJBs-40" value="&lt;div&gt;&lt;br&gt;&lt;/div&gt;&lt;div&gt;&amp;nbsp; &amp;nbsp; &amp;nbsp; &amp;nbsp;&amp;nbsp;&lt;/div&gt;" style="edgeLabel;html=1;align=center;verticalAlign=middle;resizable=0;points=[];" vertex="1" connectable="0" parent="XetHnDWPlCPj65D6uJBs-38">
          <mxGeometry x="-0.9691" y="4" relative="1" as="geometry">
            <mxPoint as="offset" />
          </mxGeometry>
        </mxCell>
        <mxCell id="XetHnDWPlCPj65D6uJBs-39" style="edgeStyle=orthogonalEdgeStyle;rounded=0;orthogonalLoop=1;jettySize=auto;html=1;entryX=0;entryY=1;entryDx=0;entryDy=0;entryPerimeter=0;" edge="1" parent="1" target="XetHnDWPlCPj65D6uJBs-33">
          <mxGeometry relative="1" as="geometry">
            <mxPoint x="980" y="110" as="sourcePoint" />
          </mxGeometry>
        </mxCell>
        <mxCell id="XetHnDWPlCPj65D6uJBs-31" value="Master.m38u" style="shape=note;whiteSpace=wrap;html=1;backgroundOutline=1;darkOpacity=0.05;" vertex="1" parent="1">
          <mxGeometry x="890" y="45" width="90" height="100" as="geometry" />
        </mxCell>
        <mxCell id="XetHnDWPlCPj65D6uJBs-43" value="" style="shape=card;whiteSpace=wrap;html=1;" vertex="1" parent="1">
          <mxGeometry x="1280" y="-90" width="60" height="80" as="geometry" />
        </mxCell>
        <mxCell id="XetHnDWPlCPj65D6uJBs-44" value="" style="shape=card;whiteSpace=wrap;html=1;" vertex="1" parent="1">
          <mxGeometry x="1290" y="-80" width="60" height="80" as="geometry" />
        </mxCell>
        <mxCell id="XetHnDWPlCPj65D6uJBs-45" value="" style="shape=card;whiteSpace=wrap;html=1;" vertex="1" parent="1">
          <mxGeometry x="1300" y="-70" width="60" height="80" as="geometry" />
        </mxCell>
        <mxCell id="XetHnDWPlCPj65D6uJBs-46" value="" style="shape=card;whiteSpace=wrap;html=1;" vertex="1" parent="1">
          <mxGeometry x="1310" y="-60" width="60" height="80" as="geometry" />
        </mxCell>
        <mxCell id="XetHnDWPlCPj65D6uJBs-47" value="" style="shape=card;whiteSpace=wrap;html=1;" vertex="1" parent="1">
          <mxGeometry x="1320" y="-50" width="60" height="80" as="geometry" />
        </mxCell>
        <mxCell id="XetHnDWPlCPj65D6uJBs-48" value=".TS File" style="shape=card;whiteSpace=wrap;html=1;" vertex="1" parent="1">
          <mxGeometry x="1330" y="-40" width="60" height="80" as="geometry" />
        </mxCell>
        <mxCell id="XetHnDWPlCPj65D6uJBs-54" value="" style="shape=card;whiteSpace=wrap;html=1;" vertex="1" parent="1">
          <mxGeometry x="1250" y="80" width="60" height="80" as="geometry" />
        </mxCell>
        <mxCell id="XetHnDWPlCPj65D6uJBs-55" value="" style="shape=card;whiteSpace=wrap;html=1;" vertex="1" parent="1">
          <mxGeometry x="1260" y="90" width="60" height="80" as="geometry" />
        </mxCell>
        <mxCell id="XetHnDWPlCPj65D6uJBs-56" value="" style="shape=card;whiteSpace=wrap;html=1;" vertex="1" parent="1">
          <mxGeometry x="1270" y="100" width="60" height="80" as="geometry" />
        </mxCell>
        <mxCell id="XetHnDWPlCPj65D6uJBs-57" value="" style="shape=card;whiteSpace=wrap;html=1;" vertex="1" parent="1">
          <mxGeometry x="1280" y="110" width="60" height="80" as="geometry" />
        </mxCell>
        <mxCell id="XetHnDWPlCPj65D6uJBs-58" value=".TS FILE" style="shape=card;whiteSpace=wrap;html=1;" vertex="1" parent="1">
          <mxGeometry x="1290" y="120" width="60" height="80" as="geometry" />
        </mxCell>
        <mxCell id="XetHnDWPlCPj65D6uJBs-59" value="" style="shape=card;whiteSpace=wrap;html=1;" vertex="1" parent="1">
          <mxGeometry x="1240" y="240" width="60" height="80" as="geometry" />
        </mxCell>
        <mxCell id="XetHnDWPlCPj65D6uJBs-60" value="" style="shape=card;whiteSpace=wrap;html=1;" vertex="1" parent="1">
          <mxGeometry x="1250" y="250" width="60" height="80" as="geometry" />
        </mxCell>
        <mxCell id="XetHnDWPlCPj65D6uJBs-61" value="" style="shape=card;whiteSpace=wrap;html=1;" vertex="1" parent="1">
          <mxGeometry x="1260" y="260" width="60" height="80" as="geometry" />
        </mxCell>
        <mxCell id="XetHnDWPlCPj65D6uJBs-62" value="" style="shape=card;whiteSpace=wrap;html=1;" vertex="1" parent="1">
          <mxGeometry x="1270" y="270" width="60" height="80" as="geometry" />
        </mxCell>
        <mxCell id="XetHnDWPlCPj65D6uJBs-63" value="" style="shape=card;whiteSpace=wrap;html=1;" vertex="1" parent="1">
          <mxGeometry x="1280" y="280" width="60" height="80" as="geometry" />
        </mxCell>
        <mxCell id="XetHnDWPlCPj65D6uJBs-64" value="" style="shape=card;whiteSpace=wrap;html=1;" vertex="1" parent="1">
          <mxGeometry x="1290" y="290" width="60" height="80" as="geometry" />
        </mxCell>
        <mxCell id="XetHnDWPlCPj65D6uJBs-65" value=".TS FILE" style="shape=card;whiteSpace=wrap;html=1;" vertex="1" parent="1">
          <mxGeometry x="1300" y="300" width="60" height="80" as="geometry" />
        </mxCell>
        <mxCell id="XetHnDWPlCPj65D6uJBs-67" style="edgeStyle=orthogonalEdgeStyle;rounded=0;orthogonalLoop=1;jettySize=auto;html=1;entryX=0;entryY=0;entryDx=0;entryDy=55;entryPerimeter=0;" edge="1" parent="1" source="XetHnDWPlCPj65D6uJBs-32" target="XetHnDWPlCPj65D6uJBs-43">
          <mxGeometry relative="1" as="geometry" />
        </mxCell>
        <mxCell id="XetHnDWPlCPj65D6uJBs-68" style="edgeStyle=orthogonalEdgeStyle;rounded=0;orthogonalLoop=1;jettySize=auto;html=1;entryX=0;entryY=0;entryDx=0;entryDy=55;entryPerimeter=0;" edge="1" parent="1" source="XetHnDWPlCPj65D6uJBs-33" target="XetHnDWPlCPj65D6uJBs-55">
          <mxGeometry relative="1" as="geometry" />
        </mxCell>
        <mxCell id="XetHnDWPlCPj65D6uJBs-73" value="MMM!!! LET&#39;s watch trueman show" style="shape=callout;whiteSpace=wrap;html=1;perimeter=calloutPerimeter;base=10;" vertex="1" parent="1">
          <mxGeometry x="30" y="450" width="120" height="80" as="geometry" />
        </mxCell>
        <mxCell id="XetHnDWPlCPj65D6uJBs-85" value="1 st request will be for truemen.Master.m3u8" style="edgeStyle=orthogonalEdgeStyle;rounded=0;orthogonalLoop=1;jettySize=auto;html=1;" edge="1" parent="1" source="XetHnDWPlCPj65D6uJBs-81" target="XetHnDWPlCPj65D6uJBs-20">
          <mxGeometry relative="1" as="geometry" />
        </mxCell>
        <mxCell id="XetHnDWPlCPj65D6uJBs-87" style="edgeStyle=orthogonalEdgeStyle;rounded=0;orthogonalLoop=1;jettySize=auto;html=1;" edge="1" parent="1" source="XetHnDWPlCPj65D6uJBs-81" target="XetHnDWPlCPj65D6uJBs-34">
          <mxGeometry relative="1" as="geometry">
            <Array as="points">
              <mxPoint x="1150" y="945" />
            </Array>
          </mxGeometry>
        </mxCell>
        <mxCell id="XetHnDWPlCPj65D6uJBs-88" value="REQUESTING MEDIA.M3U8 FILES" style="edgeLabel;html=1;align=center;verticalAlign=middle;resizable=0;points=[];" vertex="1" connectable="0" parent="XetHnDWPlCPj65D6uJBs-87">
          <mxGeometry x="-0.3772" y="-3" relative="1" as="geometry">
            <mxPoint x="170" y="-8" as="offset" />
          </mxGeometry>
        </mxCell>
        <mxCell id="XetHnDWPlCPj65D6uJBs-93" style="edgeStyle=orthogonalEdgeStyle;rounded=0;orthogonalLoop=1;jettySize=auto;html=1;" edge="1" parent="1" source="XetHnDWPlCPj65D6uJBs-81" target="XetHnDWPlCPj65D6uJBs-65">
          <mxGeometry relative="1" as="geometry" />
        </mxCell>
        <mxCell id="XetHnDWPlCPj65D6uJBs-94" value="REQUESTING TS FILES" style="edgeLabel;html=1;align=center;verticalAlign=middle;resizable=0;points=[];" vertex="1" connectable="0" parent="XetHnDWPlCPj65D6uJBs-93">
          <mxGeometry x="0.5029" y="4" relative="1" as="geometry">
            <mxPoint as="offset" />
          </mxGeometry>
        </mxCell>
        <mxCell id="XetHnDWPlCPj65D6uJBs-81" value="API" style="swimlane;whiteSpace=wrap;html=1;startSize=23;" vertex="1" parent="1">
          <mxGeometry x="550" y="820" width="140" height="250" as="geometry" />
        </mxCell>
      </root>
    </mxGraphModel>
  </diagram>
</mxfile>
